<?xml version="1.0" encoding="utf-8"?>
<!-- Generator: Adobe Illustrator 27.5.0, SVG Export Plug-In . SVG Version: 6.00 Build 0)  -->
<svg version="1.1" id="Layer_1" xmlns="http://www.w3.org/2000/svg" xmlns:xlink="http://www.w3.org/1999/xlink" x="0px" y="0px"
	 viewBox="0 0 600 600" style="enable-background:new 0 0 600 600;" xml:space="preserve">
<g>
	<g>
		<path d="M85.92,266.13v-7.99h-8.27v-53.02h11.94v16.07h24.91v8.08h8.37v28.86h-8.37v7.99H85.92z M89.58,253.34h21.24v-19.36H89.58
			V253.34z"/>
		<path d="M142.6,266.13v-7.99h-8.27v-28.86h8.27v-8.08h28.58v8.08h8.37v28.86h-8.37v7.99H142.6z M146.26,253.34h21.24v-19.36
			h-21.24V253.34z"/>
		<path d="M199.28,266.13v-7.99h-8.27v-28.86h8.27v-8.08h28.58v8.08h8.37v28.86h-8.37v7.99H199.28z M202.95,253.34h21.24v-19.36
			h-21.24V253.34z"/>
		<path d="M247.69,266.13V221.2h28.58v8.08h4.61v-8.08h20.4v8.08h8.18v36.85H297.6v-32.15h-13.07v32.15H272.6v-32.15h-12.97v32.15
			H247.69z"/>
		<path d="M329.19,266.13v-7.99h-8.27v-53.02h11.94v16.07h24.91v8.08h8.37v28.86h-8.37v7.99H329.19z M332.85,253.34h21.24v-19.36
			h-21.24V253.34z"/>
		<path d="M385.87,266.13v-7.99h-8.27v-28.86h8.27v-8.08h28.58v8.08h8.37v24.06h8.37v12.78h-12.03v-7.99h-4.7v7.99H385.87z
			 M389.53,253.34h21.24v-19.36h-21.24V253.34z"/>
		<path d="M442.64,266.13v-61.01h11.94v24.16h4.61v-8.08h20.3v8.08h8.37v36.85h-12.03v-32.15h-12.97v7.99h-8.27v24.16H442.64z"/>
		<path d="M515.87,266.13v-7.99h-8.27v-24.16h-8.27V221.2h8.27v-16.07h11.94v16.07h25v12.78h-25v19.36h21.34v-8.08h12.03v12.88
			h-8.37v7.99H515.87z"/>
		<path d="M77.65,330.8v-12.88h11.94v12.88H77.65z M77.65,378.93V334h11.94v44.93H77.65z"/>
		<path d="M101.05,378.93V334h28.58v8.08h4.61V334h20.4v8.08h8.18v36.85h-11.84v-32.15H137.9v32.15h-11.94v-32.15h-12.97v32.15
			H101.05z"/>
		<path d="M182.55,378.93v-7.99h-8.27v-28.86h8.27V334h28.58v8.08h8.37v12.69h-12.03v-7.99h-21.24v3.2h16.64v12.88h-16.64v3.29
			h21.24v-8.18h12.03v12.88h-8.37v8.08H182.55z"/>
		<path d="M230.96,377.89v-12.88h11.94v12.88H230.96z"/>
	</g>
</g>
</svg>
